<?xml version="1.0" encoding="UTF-8"?>
<svg id="Camada_1" data-name="Camada 1" xmlns="http://www.w3.org/2000/svg" viewBox="0 0 846.07 189.75">
  <path d="M210.23,0c69.16,0,138.32,0,207.48,0,3.66,0,3.07-.34,3.07,3,.01,61.32.01,122.63,0,183.95,0,3.01.53,2.78-2.86,2.78-138.39,0-276.78,0-415.18,0-3.13,0-2.72.36-2.72-2.67,0-61.46,0-122.93,0-184.39C.02-.34-.39.01,2.75.01c69.16,0,138.32,0,207.48,0ZM240.5,46.62c-.11.06-.22.13-.33.19-.42-.67-.83-1.34-1.25-2-7.34-11.43-17.53-18.46-31.26-19.22-9.03-.5-18.11-.13-27.17-.19-1.05,0-1.42.31-1.39,1.38.06,2.36,0,4.72,0,7.07-.02,36.26-.03,72.52-.05,108.78,0,1.12,0,2.24,0,3.7-.22-.46-.31-.57-.33-.7-1.49-9.68-3-19.35-4.46-29.03-1.72-11.36-3.39-22.72-5.1-34.07-1.69-11.28-3.4-22.57-5.1-33.85-1.07-7.13-2.13-14.27-3.21-21.4-.26-1.74-.29-1.77-1.83-1.77-10.09-.01-20.18.01-30.27-.03-1.13,0-1.59.36-1.73,1.43-.28,2.12-.62,4.22-.94,6.34-1.41,9.47-2.81,18.93-4.22,28.4-1.26,8.45-2.52,16.89-3.79,25.34-1.24,8.3-2.49,16.6-3.73,24.9-1.56,10.41-3.1,20.82-4.66,31.23-.33,2.21-.7,4.41-1.04,6.62-.13,0-.26-.02-.38-.03v-3.52c0-39.14,0-78.27,0-117.41,0-.52,0-1.03,0-1.55-.04-1.69-.04-1.72-1.71-1.72-9.5-.01-19-.01-28.51,0-1.66,0-1.67.03-1.93,1.63-1.06,6.62-2.1,13.23-3.16,19.85-2.21,13.81-4.4,27.62-6.66,41.42-.41,2.48-.62,5.02-1.52,7.96-1.16-7.58-2.23-14.64-3.33-21.69-2.46-15.78-4.94-31.56-7.41-47.35-.28-1.81-.27-1.83-2.2-1.83-9.28,0-18.56,0-27.84,0-2.32,0-2.13-.17-2.14,2.15,0,.37,0,.74,0,1.11,0,32.72,0,65.45,0,98.17,0,11.87,0,23.73,0,35.6,0,1.79.02,1.81,1.81,1.82,6.92,0,13.85.01,20.77,0,2.84,0,2.51.31,2.51-2.43,0-19.75,0-39.5,0-59.26v-2.8c1.21,4.92,2.07,9.84,2.91,14.76,1.98,11.54,3.94,23.07,5.91,34.61.77,4.5,1.56,8.99,2.27,13.5.18,1.16.6,1.62,1.83,1.59,3.39-.08,6.78-.02,10.16-.03,1.57,0,1.6-.03,1.91-1.68.33-1.74.59-3.48.88-5.23,2.28-13.57,4.56-27.15,6.84-40.72.93-5.5,1.86-10.99,2.8-16.49.25.26.31.51.32.76.02,3.02.04,6.04.04,9.06,0,17.39,0,34.79,0,52.18,0,2.08.01,2.11,1.74,2.11,15.03,0,30.05,0,45.08.03,1.16,0,1.64-.27,1.8-1.53.78-6.06,1.74-12.1,2.5-18.16.23-1.83.57-1.62,1.91-1.62,3.76,0,7.51,0,11.27,0,1.77,0,3.54.03,5.3-.01.81-.02,1.24.27,1.32,1.09.03.37.1.73.15,1.1.77,5.77,1.53,11.53,2.3,17.3.24,1.77.25,1.81,1.78,1.81,14.8,0,29.61,0,44.41.02,1.09,0,1.69-.22,1.54-1.44-.06-.44,0-.88,0-1.33,0-13.05,0-26.09,0-39.14q0-3.23,3.25-3.62c2.62-.32,2.61-.32,3.28,2.27,3.58,13.74,7.16,27.48,10.74,41.22.54,2.08.56,2.08,2.79,2.08,6.85,0,13.7,0,20.55,0,.56,0,1.16.2,1.79-.34-.97-3.33-1.96-6.7-2.95-10.08-4.06-13.83-8.11-27.67-12.21-41.49-.38-1.28-.32-2.07.79-3.01,4.92-4.19,8.31-9.5,10.77-15.43,1.84-4.46,2.92-9.1,2.87-14.09.7.58.61,1.21.7,1.78,1.53,9.22,3.07,18.44,4.6,27.66,2,11.98,3.99,23.96,6,35.94,1,5.95,2.03,11.9,2.98,17.86.16,1.02.53,1.32,1.54,1.3,3.98-.06,7.95-.03,11.93-.04,4.79,0,9.57-.02,14.36-.04,1.64,0,1.64-.03,1.89-1.68.33-2.11.65-4.22.98-6.33,3.18-19.92,6.37-39.83,9.53-59.75,2.86-18.03,5.69-36.07,8.53-54.1.08-.5.11-1.01.66-1.36v2.16c0,27.42,0,54.83,0,82.25,0,12.31,0,24.62,0,36.92,0,1.81.03,1.83,1.8,1.83,14.58,0,29.17,0,43.75,0,1.75,0,1.78-.03,1.78-1.86,0-7.08,0-14.15,0-21.23,0-1.94-.02-1.96-1.93-1.97-6.11-.01-12.23,0-18.34,0-2.36,0-2.17.16-2.17-2.11,0-9.14,0-18.28,0-27.41,0-.44.02-.88,0-1.33-.02-.67.34-.92.95-.93.52,0,1.03-.01,1.55-.01,6.04,0,12.08,0,18.12,0,1.8,0,1.82-.03,1.82-1.84.01-7.22.01-14.45,0-21.67,0-1.8-.03-1.82-1.83-1.82-6.04-.01-12.08,0-18.12,0-.52,0-1.03-.01-1.55,0-.62,0-.96-.24-.94-.9.01-.44,0-.88,0-1.33,0-8.92,0-17.83,0-26.75,0-.44.02-.88,0-1.33-.02-.66.33-.93.94-.94.52,0,1.03-.01,1.55-.01,6.04,0,12.08,0,18.12,0,1.8,0,1.83-.03,1.83-1.83.01-7,0-14,0-21,0-2.83.15-2.5-2.49-2.5-21.88,0-43.75,0-65.63,0-.22,0-.44,0-.66,0-1.65.02-1.67.02-1.89,1.59-.57,4.01-1.13,8.02-1.68,12.03-1.28,9.34-2.56,18.67-3.83,28.01-1.09,8.03-2.16,16.05-3.25,24.08-.77,5.66-1.56,11.32-2.34,17.03-.57-.41-.56-.95-.62-1.45-.34-2.48-.66-4.96-.99-7.44-1.53-11.46-3.06-22.92-4.61-34.37-1.69-12.55-3.41-25.1-5.1-37.65-.26-1.9-.23-1.92-2.11-1.92-7.29,0-14.58,0-21.88,0-.5,0-1.04-.11-1.66.33.87,6.89,1.76,13.88,2.64,20.87ZM360.85,94.82c0,22.25,0,44.51,0,66.76,0,.59,0,1.18,0,1.77,0,.63.29.95.94.93.37-.01.74,0,1.1,0,14.07,0,28.13,0,42.2,0,1.96,0,1.98-.02,1.99-1.88,0-7.07,0-14.15,0-21.22,0-1.93-.02-1.95-1.91-1.95-5.89-.01-11.78,0-17.67,0-1.68,0-1.68-.03-1.71-1.68,0-.52,0-1.03,0-1.55,0-23.43,0-46.87,0-70.3,0-12.75,0-25.5,0-38.24,0-2.02-.02-2.04-2.05-2.04-6.78,0-13.55,0-20.33,0-2.86,0-2.55-.29-2.55,2.65,0,22.25,0,44.51,0,66.76Z" style="fill: #e50c15; stroke-width: 0px;"/>
  <path d="M633.8,94.64c0-22.25,0-44.5,0-66.76,0-2.73-.27-2.39,2.3-2.4,8.17-.01,16.35,0,24.52,0,3.7,0,7.34.42,10.93,1.32,9.72,2.43,15.63,8.62,17.95,18.32.91,3.82,1.2,7.71,1.21,11.62.02,25.49.03,50.99,0,76.48,0,3.76-.3,7.5-1.14,11.19-2.41,10.62-9.05,16.86-19.63,19.03-3.04.62-6.11.92-9.21.91-8.32-.01-16.64,0-24.96,0-2.2,0-1.97.16-1.97-2.06,0-22.55,0-45.09,0-67.64ZM649.68,94.83c0,17.45,0,34.91,0,52.36,0,.52.03,1.03,0,1.55-.05.73.18,1.07.98,1.05,3.9-.08,7.81.22,11.7-.15,7.02-.67,11.34-5.05,12.2-12.07.24-1.99.17-3.96.17-5.95,0-24.75,0-49.49-.01-74.24,0-1.62-.04-3.25-.23-4.85-.66-5.57-3.2-10.89-11.29-12.18-3.66-.58-7.35-.24-11.02-.29-2.79-.04-2.48-.45-2.48,2.4,0,17.45,0,34.91,0,52.36Z" style="fill: #020202; stroke-width: 0px;"/>
  <path d="M783.15,94.96c0,15.03,0,30.07,0,45.11,0,3.33-.37,6.62-1.27,9.83-2.32,8.26-7.86,13.06-16.14,14.84-2.81.6-5.67.89-8.55.83-3.6-.07-7.21.16-10.81-.28-1.98-.24-3.92-.61-5.82-1.19-8.34-2.56-12.79-8.46-14.36-16.82-.49-2.62-.64-5.27-.64-7.92-.02-29.63-.02-59.26,0-88.88,0-3.76.33-7.49,1.45-11.13,2.19-7.14,6.85-11.87,14.02-13.68,8.61-2.17,17.4-2.16,26.04-.15,8.62,2.01,13.52,7.86,15.27,16.45.59,2.9.83,5.83.83,8.78-.02,14.74,0,29.48,0,44.22ZM741.55,94.97c0,14.88,0,29.77,0,44.65,0,1.18.01,2.36.16,3.53.51,4.1,2.95,6.77,7,7.44,3.87.64,7.79.66,11.64-.06,3.03-.57,5.16-2.37,6.13-5.41.52-1.63.7-3.3.7-5.01,0-30.14,0-60.27,0-90.41,0-1.26-.12-2.5-.35-3.73-.69-3.7-2.96-6.1-6.66-6.77-3.94-.72-7.93-.71-11.86.03-3.22.61-5.36,2.58-6.28,5.82-.47,1.66-.49,3.35-.49,5.04,0,14.96,0,29.92,0,44.87Z" style="fill: #020202; stroke-width: 0px;"/>
  <path d="M623.8,85.58c0,18.13,0,36.26,0,54.38,0,4.23-.46,8.38-2.02,12.35-2.75,6.98-8.05,10.96-15.23,12.36-7.29,1.42-14.66,1.39-21.96.04-8.93-1.65-14.92-7.83-16.61-16.74-.54-2.83-.81-5.68-.81-8.56,0-37.07,0-74.13.01-111.2,0-3.11-.41-2.71,2.66-2.72,3.9-.02,7.81.03,11.71-.03,1.11-.02,1.67.25,1.52,1.45-.06.51-.01,1.03-.01,1.55,0,36.92,0,73.84,0,110.76,0,1.62.02,3.24.39,4.83.79,3.51,2.91,5.77,6.43,6.47,3.71.74,7.48.73,11.2,0,3.83-.75,6.12-3.53,6.61-7.84.19-1.68.29-3.38.29-5.06.02-36.48.01-72.95.01-109.43q0-2.71,2.68-2.71c3.76,0,7.51,0,11.27,0,1.86,0,1.87.02,1.87,1.95,0,7.59,0,15.18,0,22.77v35.37Z" style="fill: #020202; stroke-width: 0px;"/>
  <path d="M845.57,129.74c0,4.2.05,8.4-.02,12.6-.05,3.11-.63,6.14-1.63,9.09-2.26,6.64-6.86,10.83-13.51,12.83-2.76.83-5.6,1.3-8.48,1.33-4.85.05-9.71.31-14.52-.71-9.32-1.97-14.88-7.55-16.7-16.85-.46-2.32-.69-4.67-.72-7.02-.06-6.11-.03-12.23-.02-18.35,0-1.69.03-1.71,1.67-1.72,4.05-.02,8.1,0,12.15-.01,1.89,0,1.74.03,1.74,1.87,0,5.75,0,11.49,0,17.24,0,1.55.08,3.09.44,4.6.88,3.75,3.35,5.81,7.04,6.37,2.99.45,6.03.44,9.03,0,4.07-.58,6.42-2.92,7.23-6.95.23-1.16.33-2.33.33-3.51,0-6.78-.1-13.56.02-20.33.11-5.9-2.32-10.26-7.11-13.62-6.63-4.65-13.12-9.49-19.67-14.24-2.21-1.6-4.28-3.37-6.13-5.38-3.89-4.22-5.94-9.24-6.44-14.91-.63-7.13-.2-14.28-.3-21.43-.04-2.73.22-5.44.7-8.13,1.71-9.63,7.8-15.84,17.4-17.49,6.43-1.11,12.9-1.13,19.33,0,9.62,1.68,15.66,7.93,17.24,17.6.36,2.19.53,4.38.52,6.6-.01,3.76-.03,7.52.01,11.27.01.96-.3,1.26-1.26,1.25-4.34-.04-8.69-.04-13.03,0-.99,0-1.25-.36-1.24-1.29.04-3.68.02-7.37.01-11.05,0-1.32-.07-2.63-.38-3.94-.83-3.52-2.97-5.71-6.51-6.38-3.42-.64-6.88-.69-10.3.09-3.65.84-5.61,3.32-6.23,6.9-.21,1.23-.24,2.49-.25,3.74-.03,5.38.13,10.76-.05,16.13-.19,5.99,2.18,10.46,7.05,13.87,6.39,4.48,12.66,9.12,18.98,13.69,1.85,1.34,3.62,2.77,5.3,4.32,5.34,4.91,7.93,11.08,8.2,18.22.18,4.56.03,9.13.03,13.7.02,0,.03,0,.05,0Z" style="fill: #020202; stroke-width: 0px;"/>
  <path d="M484.33,129.47c-.15-3.48.19-7.75-.18-12.02-.34-3.91-2.06-7.03-5.14-9.38-3.39-2.59-6.85-5.09-10.3-7.61-3.74-2.74-7.5-5.45-11.26-8.16-2.34-1.69-4.48-3.59-6.41-5.73-4.34-4.85-6.13-10.69-6.26-17.04-.16-7.22-.08-14.44-.02-21.66.02-2.95.53-5.87,1.42-8.69,2.58-8.11,8.31-12.65,16.5-14.13,6.34-1.15,12.75-1.16,19.12-.08,10.23,1.74,16.36,8.29,17.7,18.65.74,5.66.26,11.33.43,17,.03.89-.35,1.13-1.18,1.12-4.42-.02-8.84-.03-13.25,0-.91,0-1.1-.38-1.1-1.19.03-3.54,0-7.07.02-10.61,0-1.41-.09-2.79-.37-4.17-.75-3.61-2.84-5.93-6.48-6.67-3.28-.67-6.59-.65-9.87-.05-3.83.71-6.03,3.12-6.73,6.94-.2,1.09-.33,2.18-.33,3.29,0,5.82,0,11.64,0,17.46,0,1.56.19,3.09.57,4.6.72,2.9,2.36,5.24,4.72,7.01,4.59,3.44,9.25,6.81,13.88,10.19,2.91,2.13,5.87,4.19,8.75,6.37,4.28,3.25,7.89,7.07,9.84,12.21,1.24,3.27,1.85,6.69,1.88,10.16.09,8.25.08,16.5.02,24.75-.02,3.03-.57,6.01-1.49,8.9-2.33,7.29-7.3,11.9-14.66,13.57-7.98,1.81-16.09,1.88-24.06-.15-7.97-2.04-12.62-7.45-14.47-15.36-.64-2.73-.92-5.51-.91-8.33.03-6.04,0-12.08.01-18.13,0-1.56.03-1.59,1.55-1.6,4.12-.02,8.25-.01,12.37,0,1.55,0,1.57.03,1.58,1.54.01,5.97.01,11.94,0,17.9,0,1.19.1,2.35.31,3.51.7,3.99,3.13,6.51,7.1,7.1,3.14.47,6.33.46,9.47-.03,3.72-.58,6.2-3.09,6.88-6.81.22-1.23.37-2.47.36-3.73-.03-3.39-.01-6.78-.01-10.96Z" style="fill: #020202; stroke-width: 0px;"/>
  <path d="M645.11,7.1c-65.92,0-131.84,0-197.76,0-3.36,0-2.84.45-2.89-2.95-.01-1.03.02-2.06,0-3.1-.02-.76.32-1.07,1.06-1.04.51.02,1.03,0,1.55,0,132.06,0,264.12,0,396.18,0q2.66,0,2.66,2.74c0,1.11-.03,2.21,0,3.32.03.77-.33,1.05-1.05,1.03-.66-.02-1.33,0-1.99,0-65.92,0-131.84,0-197.76,0Z" style="fill: #020202; stroke-width: 0px;"/>
  <path d="M524.45,102.4v-59.23c0-.52-.05-1.04,0-1.55.13-1.21-.44-1.49-1.55-1.48-5.6.05-11.19.02-16.79.02-.52,0-1.03-.01-1.55,0-.66.01-.9-.34-.9-.96,0-4.27,0-8.55,0-12.82,0-.64.28-.94.94-.91.44.02.88,0,1.32,0,17.67,0,35.34,0,53.01,0,.29,0,.59.03.88,0,1.2-.17,1.48.41,1.47,1.52-.05,3.9-.07,7.81,0,11.71.02,1.21-.41,1.49-1.52,1.48-5.74-.04-11.49-.02-17.23-.02-2.19,0-2.11-.23-2.11,2.18,0,39.71,0,79.41,0,119.12q0,2.87-2.97,2.87c-3.68,0-7.36,0-11.04,0-2.14,0-2,.2-2-2.05,0-16.5,0-33,0-49.51,0-3.46,0-6.92,0-10.39Z" style="fill: #020202; stroke-width: 0px;"/>
  <path d="M645.1,182.47c65.46,0,130.93,0,196.39.01,1.38,0,3.15-.6,4.05.27,1,.97.22,2.79.35,4.24.04.51-.02,1.03.01,1.55.05.78-.33,1.05-1.05,1.02-.51-.02-1.03,0-1.55,0-132.11,0-264.22,0-396.32,0-.37,0-.74-.03-1.1,0-.99.11-1.5-.17-1.44-1.31.08-1.54.05-3.09,0-4.64-.02-.87.32-1.2,1.17-1.14.59.04,1.18,0,1.77,0,65.91,0,131.81,0,197.72,0Z" style="fill: #020202; stroke-width: 0px;"/>
  <path d="M700.17,94.89c0-22.32,0-44.65,0-66.97,0-2.76-.3-2.42,2.5-2.43,3.9-.02,7.8-.01,11.71,0,1.63,0,1.63.03,1.66,1.72,0,.37,0,.74,0,1.11,0,44.43,0,88.85,0,133.28,0,.52-.05,1.04,0,1.55.11,1.01-.38,1.23-1.29,1.22-4.42-.03-8.84-.04-13.25,0-1.08.01-1.47-.35-1.35-1.4.06-.51,0-1.03,0-1.55,0-22.18,0-44.35,0-66.53Z" style="fill: #020202; stroke-width: 0px;"/>
  <path d="M240.5,46.62c-.88-6.99-1.77-13.98-2.64-20.87.63-.45,1.16-.33,1.66-.33,7.29,0,14.58-.01,21.88,0,1.87,0,1.85.02,2.11,1.92,1.7,12.55,3.41,25.1,5.1,37.65,1.55,11.46,3.08,22.91,4.61,34.37.33,2.48.65,4.96.99,7.44.07.49.06,1.04.62,1.45.79-5.72,1.57-11.37,2.34-17.03,1.09-8.03,2.16-16.05,3.25-24.08,1.27-9.34,2.55-18.68,3.83-28.01.55-4.01,1.11-8.02,1.68-12.03.22-1.57.24-1.57,1.89-1.59.22,0,.44,0,.66,0,21.88,0,43.75,0,65.63,0,2.64,0,2.49-.33,2.49,2.5,0,7,0,14,0,21,0,1.8-.03,1.83-1.83,1.83-6.04.01-12.08,0-18.12,0-.52,0-1.03,0-1.55.01-.61,0-.96.28-.94.94.01.44,0,.88,0,1.33,0,8.92,0,17.83,0,26.75,0,.44.02.88,0,1.33-.02.66.32.91.94.9.52,0,1.03,0,1.55,0,6.04,0,12.08,0,18.12,0,1.8,0,1.83.03,1.83,1.82.01,7.22.01,14.45,0,21.67,0,1.81-.03,1.83-1.82,1.84-6.04.01-12.08,0-18.12,0-.52,0-1.03,0-1.55.01-.61,0-.97.26-.95.93.01.44,0,.88,0,1.33,0,9.14,0,18.28,0,27.41,0,2.27-.19,2.11,2.17,2.11,6.11,0,12.23,0,18.34,0,1.91,0,1.93.02,1.93,1.97,0,7.08,0,14.15,0,21.23,0,1.83-.02,1.86-1.78,1.86-14.58,0-29.17,0-43.75,0-1.77,0-1.8-.02-1.8-1.83,0-12.31,0-24.62,0-36.92,0-27.42,0-54.83,0-82.25v-2.16c-.55.35-.59.86-.66,1.36-2.84,18.03-5.67,36.07-8.53,54.1-3.16,19.92-6.35,39.84-9.53,59.75-.34,2.11-.66,4.22-.98,6.33-.26,1.65-.26,1.67-1.89,1.68-4.79.03-9.57.03-14.36.04-3.98,0-7.96-.02-11.93.04-1.02.02-1.38-.28-1.54-1.3-.95-5.96-1.98-11.91-2.98-17.86-2-11.98-4-23.96-6-35.94-1.54-9.22-3.07-18.44-4.6-27.66-.09-.56,0-1.19-.7-1.78.06,5-1.03,9.63-2.87,14.09-2.45,5.93-5.85,11.24-10.77,15.43-1.11.94-1.17,1.73-.79,3.01,4.11,13.82,8.15,27.66,12.21,41.49.99,3.38,1.98,6.75,2.95,10.08-.62.54-1.23.34-1.79.34-6.85.02-13.7.01-20.55,0-2.23,0-2.25,0-2.79-2.08-3.59-13.74-7.17-27.48-10.74-41.22-.67-2.58-.66-2.59-3.28-2.27q-3.25.4-3.25,3.62c0,13.05,0,26.09,0,39.14,0,.44-.05.89,0,1.33.15,1.22-.46,1.45-1.54,1.44-14.8-.03-29.61-.01-44.41-.02-1.53,0-1.54-.04-1.78-1.81-.77-5.77-1.54-11.53-2.3-17.3-.05-.37-.11-.73-.15-1.1-.08-.81-.51-1.11-1.32-1.09-1.77.04-3.54.01-5.3.01-3.76,0-7.51,0-11.27,0-1.34,0-1.67-.21-1.91,1.62-.76,6.06-1.73,12.1-2.5,18.16-.16,1.26-.64,1.53-1.8,1.53-15.03-.03-30.05-.02-45.08-.03-1.73,0-1.74-.03-1.74-2.11,0-17.39,0-34.79,0-52.18,0-3.02-.02-6.04-.04-9.06,0-.25-.07-.5-.32-.76-.93,5.5-1.87,10.99-2.8,16.49-2.28,13.57-4.56,27.15-6.84,40.72-.29,1.74-.55,3.49-.88,5.23-.31,1.65-.34,1.67-1.91,1.68-3.39.02-6.78-.05-10.16.03-1.23.03-1.65-.43-1.83-1.59-.71-4.51-1.5-9-2.27-13.5-1.97-11.54-3.94-23.07-5.91-34.61-.84-4.92-1.7-9.84-2.91-14.76v2.8c0,19.75,0,39.5,0,59.26,0,2.74.33,2.42-2.51,2.43-6.92.01-13.85.01-20.77,0-1.79,0-1.81-.03-1.81-1.82,0-11.87,0-23.73,0-35.6,0-32.72,0-65.45,0-98.17,0-.37,0-.74,0-1.11,0-2.33-.18-2.15,2.14-2.15,9.28,0,18.56,0,27.84,0,1.93,0,1.92.02,2.2,1.83,2.47,15.78,4.95,31.56,7.41,47.35,1.1,7.05,2.17,14.11,3.33,21.69.89-2.94,1.11-5.48,1.52-7.96,2.26-13.8,4.45-27.61,6.66-41.42,1.06-6.61,2.11-13.23,3.16-19.85.26-1.6.27-1.63,1.93-1.63,9.5,0,19-.01,28.51,0,1.67,0,1.68.03,1.71,1.72.01.52,0,1.03,0,1.55,0,39.14,0,78.27,0,117.41v3.52c.13,0,.26.02.38.03.35-2.21.71-4.41,1.04-6.62,1.56-10.41,3.11-20.82,4.66-31.23,1.24-8.3,2.49-16.6,3.73-24.9,1.26-8.45,2.53-16.89,3.79-25.34,1.41-9.47,2.82-18.93,4.22-28.4.31-2.11.66-4.22.94-6.34.14-1.07.6-1.43,1.73-1.43,10.09.05,20.18.02,30.27.03,1.53,0,1.56.03,1.83,1.77,1.08,7.13,2.14,14.27,3.21,21.4,1.7,11.28,3.41,22.56,5.1,33.85,1.7,11.36,3.38,22.72,5.1,34.07,1.46,9.68,2.97,19.35,4.46,29.03.02.13.11.25.33.7,0-1.45,0-2.57,0-3.7.02-36.26.03-72.52.05-108.78,0-2.36.07-4.72,0-7.07-.03-1.07.34-1.39,1.39-1.38,9.06.06,18.14-.31,27.17.19,13.73.76,23.92,7.79,31.26,19.22.43.66.83,1.34,1.25,2,.11-.06.22-.13.33-.19ZM204,72.45c0,6.33,0,12.67,0,19,0,3.81.09,3.88,3.84,2.69,5.22-1.66,8.6-5.34,10.58-10.25,3.19-7.92,3.11-15.99-.03-23.89-2.17-5.47-6.42-8.65-12.24-9.67-2.01-.35-2.14-.24-2.14,1.79,0,6.78,0,13.55,0,20.33ZM144.07,63.04h-.23c-.33,2.7-.68,5.38-.99,8.08-.96,8.33-1.9,16.67-2.86,25-.9,7.82-1.82,15.64-2.76,23.45-.1.8,0,1.29.95,1.28,3.9-.01,7.8-.01,11.7,0,.76,0,1.07-.33.98-1.08-.05-.36-.04-.74-.08-1.1-.81-6.79-1.64-13.59-2.45-20.38-.95-7.96-1.9-15.92-2.86-23.88-.46-3.79-.94-7.58-1.4-11.37Z" style="fill: #fff; stroke-width: 0px;"/>
  <path d="M360.85,94.82c0-22.25,0-44.51,0-66.76,0-2.93-.32-2.64,2.55-2.65,6.78,0,13.55,0,20.33,0,2.04,0,2.05.01,2.05,2.04,0,12.75,0,25.5,0,38.24,0,23.43,0,46.87,0,70.3,0,.52,0,1.03,0,1.55.03,1.65.03,1.68,1.71,1.68,5.89.01,11.78,0,17.67,0,1.89,0,1.91.02,1.91,1.95,0,7.07,0,14.15,0,21.22,0,1.86-.02,1.88-1.99,1.88-14.07,0-28.13,0-42.2,0-.37,0-.74-.02-1.1,0-.65.02-.94-.3-.94-.93,0-.59,0-1.18,0-1.77,0-22.25,0-44.51,0-66.76Z" style="fill: #fff; stroke-width: 0px;"/>
  <path d="M204,72.45c0-6.78,0-13.55,0-20.33,0-2.03.13-2.14,2.14-1.79,5.82,1.01,10.06,4.19,12.24,9.67,3.14,7.91,3.22,15.97.03,23.89-1.97,4.91-5.36,8.59-10.58,10.25-3.75,1.19-3.84,1.11-3.84-2.69,0-6.33,0-12.67,0-19Z" style="fill: #e50c15; stroke-width: 0px;"/>
  <path d="M144.07,63.04c.47,3.79.95,7.58,1.4,11.37.96,7.96,1.9,15.92,2.86,23.88.81,6.79,1.64,13.59,2.45,20.38.04.36.03.74.08,1.1.09.75-.22,1.08-.98,1.08-3.9-.01-7.8-.01-11.7,0-.95,0-1.04-.49-.95-1.28.93-7.82,1.85-15.63,2.76-23.45.96-8.33,1.9-16.67,2.86-25,.31-2.69.66-5.38.99-8.07h.23Z" style="fill: #e50c15; stroke-width: 0px;"/>
</svg>